<?xml version="1.0" encoding="utf-8"?>
<!-- Generator: Adobe Illustrator 19.2.1, SVG Export Plug-In . SVG Version: 6.00 Build 0)  -->
<svg version="1.1" id="Layer_1" xmlns="http://www.w3.org/2000/svg" xmlns:xlink="http://www.w3.org/1999/xlink" x="0px" y="0px" viewBox="0 0 144.8 145.1" style="enable-background:new 0 0 144.8 145.1;" xml:space="preserve">
<style type="text/css">
	.st1{clip-path:url(#SVGID_1_);}
</style>
<g>
	<g>
		<path class="logo" d="M10,45.1h12.8c-0.2,0.6-0.3,1.3-0.3,1.9c0,4.1,3.4,7.5,7.5,7.5s7.5-3.4,7.5-7.5c0-0.7-0.1-1.3-0.3-1.9h12.5
			v-10H0L10,45.1z"/>
		<path class="logo" d="M144.8,10l-10-10v35.1h-50v70H50l10,10h34.8v-70h13c-0.2,0.6-0.3,1.3-0.3,1.9c0,4.1,3.4,7.5,7.5,7.5
			s7.5-3.4,7.5-7.5c0-0.7-0.1-1.3-0.3-1.9h22.5V10z"/>
	</g>
	<g>
		<defs>
			<rect id="SVGID_3_" x="19.8" y="105.1" width="40" height="40"/>
		</defs>
		<clipPath id="SVGID_1_">
			<use xlink:href="#SVGID_3_"  style="overflow:visible;"/>
		</clipPath>
		<g class="st1">
			<path class="logo" d="M59.8,75.1c16.5,0,30,13.5,30,30s-13.5,30-30,30s-30-13.5-30-30S43.2,75.1,59.8,75.1 M59.8,65.1
				c-22.1,0-40,17.9-40,40s17.9,40,40,40s40-17.9,40-40S81.8,65.1,59.8,65.1L59.8,65.1z"/>
		</g>
	</g>
</g>
</svg>
